<svg version="1.1" xmlns="http://www.w3.org/2000/svg" xmlns:xlink="http://www.w3.org/1999/xlink" width="48px" height="48px" viewBox="0,0,256,256"><defs><linearGradient x1="25.419" y1="29.951" x2="22.571" y2="46.105" gradientUnits="userSpaceOnUse" id="color-1"><stop offset="0" stop-color="#ffffff"></stop><stop offset="1" stop-color="#262626" stop-opacity="0.8"></stop></linearGradient><linearGradient x1="25.582" y1="34.03" x2="22.407" y2="52.032" gradientUnits="userSpaceOnUse" id="color-2"><stop offset="0" stop-color="#ffffff"></stop><stop offset="1" stop-color="#262626" stop-opacity="0.8"></stop></linearGradient><linearGradient x1="11.78" y1="-11.793" x2="37.73" y2="59.502" gradientUnits="userSpaceOnUse" id="color-3"><stop offset="0" stop-color="#ffffff"></stop><stop offset="1" stop-color="#262626" stop-opacity="0.8"></stop></linearGradient></defs><g fill="none" fill-rule="nonzero" stroke="none" stroke-width="1" stroke-linecap="butt" stroke-linejoin="miter" stroke-miterlimit="10" stroke-dasharray="" stroke-dashoffset="0" font-family="none" font-weight="none" font-size="none" text-anchor="none" style="mix-blend-mode: normal"><g transform="scale(5.33333,5.33333)"><path d="M33,40h-21v-1c0,-1.657 1.343,-3 3,-3h21v1c0,1.657 -1.343,3 -3,3z" fill="url(#color-1)"></path><rect x="15" y="40" width="18" height="6" fill="url(#color-2)"></rect><path d="M26.999,4.425c0,0 0.001,0 0,0l0.001,-1.425c0,-1.657 -1.343,-3 -3,-3c-1.657,0 -3,1.343 -3,3v1.425h0.001c-4.616,1.307 -8.001,5.541 -8.001,10.575v3h2v18h18v-18h2v-3c0,-5.034 -3.385,-9.268 -8.001,-10.575z" fill="url(#color-3)"></path></g></g></svg>