<svg version="1.1" xmlns="http://www.w3.org/2000/svg" xmlns:xlink="http://www.w3.org/1999/xlink" width="512px" height="512px" viewBox="0,0,256,256"><defs><linearGradient x1="1.331" y1="48.757" x2="63.584" y2="12.814" gradientUnits="userSpaceOnUse" id="color-1"><stop offset="0" stop-color="#ffffff"></stop><stop offset="1" stop-color="#262626" stop-opacity="0.8"></stop></linearGradient><linearGradient x1="36.776" y1="-22.073" x2="18.606" y2="27.848" gradientUnits="userSpaceOnUse" id="color-2"><stop offset="0" stop-color="#ffffff"></stop><stop offset="1" stop-color="#262626" stop-opacity="0.8"></stop></linearGradient><linearGradient x1="7.252" y1="16.924" x2="32.621" y2="42.293" gradientUnits="userSpaceOnUse" id="color-3"><stop offset="0" stop-color="#ffffff"></stop><stop offset="1" stop-color="#262626" stop-opacity="0.8"></stop></linearGradient></defs><g fill="none" fill-rule="nonzero" stroke="none" stroke-width="1" stroke-linecap="butt" stroke-linejoin="miter" stroke-miterlimit="10" stroke-dasharray="" stroke-dashoffset="0" font-family="none" font-weight="none" font-size="none" text-anchor="none" style="mix-blend-mode: normal"><g transform="scale(5.33333,5.33333)"><path d="M39,34v12h-30v-12c0,-8.284 6.716,-15 15,-15v0c8.284,0 15,6.716 15,15z" fill="url(#color-1)"></path><path d="M35,12.316v3.684h-2.217c-2.089,0 -3.783,-1.694 -3.783,-3.783v0c0,-2.611 -1.907,-4.944 -4.506,-5.194c-2.982,-0.286 -5.494,2.054 -5.494,4.977v7.86c-2.32,0.81 -4.37,2.19 -6,3.96v-11.82c0,-6.417 5.509,-11.559 12.05,-10.951c5.703,0.53 9.95,5.54 9.95,11.267z" fill="url(#color-2)"></path><path d="M28,31c0,-2.522 -2.334,-4.499 -4.96,-3.888c-1.418,0.33 -2.572,1.471 -2.917,2.885c-0.462,1.889 0.424,3.603 1.877,4.449v5.554h1.5c1.381,0 2.5,-1.119 2.5,-2.5v-3.055c1.191,-0.693 2,-1.968 2,-3.445z" fill="url(#color-3)"></path></g></g></svg>
