<svg version="1.1" xmlns="http://www.w3.org/2000/svg" xmlns:xlink="http://www.w3.org/1999/xlink" width="512px" height="512px" viewBox="0,0,256,256"><defs><linearGradient x1="15.496" y1="11.91" x2="30.729" y2="3.116" gradientUnits="userSpaceOnUse" id="color-1"><stop offset="0" stop-color="#2e2b54"></stop><stop offset="1" stop-color="#da619b"></stop></linearGradient><linearGradient x1="19.411" y1="3.206" x2="28.667" y2="50.824" gradientUnits="userSpaceOnUse" id="color-2"><stop offset="0" stop-color="#2e2b54"></stop><stop offset="1" stop-color="#da619b"></stop></linearGradient><linearGradient x1="39.012" y1="18.861" x2="29.227" y2="22.422" gradientUnits="userSpaceOnUse" id="color-3"><stop offset="0" stop-color="#2e2b54"></stop><stop offset="1" stop-color="#da619b"></stop></linearGradient><linearGradient x1="8.006" y1="18.066" x2="20.074" y2="22.458" gradientUnits="userSpaceOnUse" id="color-4"><stop offset="0" stop-color="#2e2b54"></stop><stop offset="1" stop-color="#da619b"></stop></linearGradient><linearGradient x1="7.899" y1="35.904" x2="26.587" y2="42.706" gradientUnits="userSpaceOnUse" id="color-5"><stop offset="0" stop-color="#2e2b54"></stop><stop offset="1" stop-color="#da619b"></stop></linearGradient><linearGradient x1="27.965" y1="25.458" x2="33.45" y2="53.677" gradientUnits="userSpaceOnUse" id="color-6"><stop offset="0" stop-color="#2e2b54"></stop><stop offset="1" stop-color="#da619b"></stop></linearGradient></defs><g fill="none" fill-rule="nonzero" stroke="none" stroke-width="1" stroke-linecap="butt" stroke-linejoin="miter" stroke-miterlimit="10" stroke-dasharray="" stroke-dashoffset="0" font-family="none" font-weight="none" font-size="none" text-anchor="none" style="mix-blend-mode: normal"><g transform="scale(5.33333,5.33333)"><path d="M28,8c0,1.657 -1.343,3 -3,3h-5v-5c0,-1.657 1.343,-3 3,-3h5z" fill="url(#color-1)"></path><path d="M19,13h10c4,6 5,12 4,18c-6,3 -12,3 -18,0c-1,-6 0,-12 4,-18z" fill="url(#color-2)"></path><path d="M33.254,29h4.014c0.383,-4.968 -0.521,-9.748 -2.695,-14.28c-0.502,-1.047 -1.56,-1.72 -2.721,-1.72h-2.852c3.556,5.333 4.737,10.667 4.254,16z" fill="url(#color-3)"></path><path d="M19,13h-4.681c-2.285,4.089 -3.508,8.392 -3.657,12.863c-0.057,1.71 1.293,3.137 3.003,3.137h1.081c-0.483,-5.333 0.698,-10.667 4.254,-16z" fill="url(#color-4)"></path><path d="M15,31v15h5v-13.203c-1.667,-0.37 -3.333,-0.964 -5,-1.797z" fill="url(#color-5)"></path><path d="M28,46h2c1.657,0 3,-1.343 3,-3v-12c-1.667,0.833 -3.333,1.427 -5,1.797z" fill="url(#color-6)"></path></g></g></svg>
